<?xml version="1.0" standalone="no"?>
<!DOCTYPE svg PUBLIC "-//W3C//DTD SVG 20010904//EN"
 "http://www.w3.org/TR/2001/REC-SVG-20010904/DTD/svg10.dtd">
<svg version="1.0" xmlns="http://www.w3.org/2000/svg"
 width="702.000000pt" height="606.000000pt" viewBox="0 0 702.000000 606.000000"
 preserveAspectRatio="xMidYMid meet">
<metadata>
Created by potrace 1.16, written by Peter Selinger 2001-2019
</metadata>
<g transform="translate(0.000000,606.000000) scale(0.100000,-0.100000)"
fill="#000000" stroke="none">
<path d="M2170 4915 c-15 -18 -43 -249 -35 -292 4 -20 52 -89 137 -195 196
-243 205 -254 185 -239 -11 8 -75 77 -145 154 -69 76 -133 142 -143 148 -21
11 -45 3 -53 -18 -13 -32 -37 -288 -31 -322 5 -30 44 -73 223 -255 119 -120
212 -216 205 -212 -6 3 -74 61 -150 127 -159 138 -182 154 -207 136 -16 -12
-13 -30 44 -237 34 -124 70 -256 81 -295 10 -38 32 -117 48 -175 l29 -105 85
-80 c49 -47 120 -101 170 -130 82 -47 87 -53 103 -100 45 -134 126 -259 243
-375 131 -129 260 -194 411 -207 56 -4 104 4 355 62 159 37 314 76 345 87 154
58 268 200 317 395 24 97 24 329 -1 443 -33 151 -90 295 -172 432 -34 56 -34
58 -28 137 6 66 3 91 -15 148 -18 59 -95 330 -228 808 -20 72 -41 136 -46 143
-5 6 -20 12 -33 12 -19 0 -34 -16 -70 -71 -82 -128 -81 -126 -55 -230 12 -50
21 -93 19 -95 -3 -2 -12 19 -22 46 -35 96 -56 91 -130 -34 -88 -148 -87 -140
-29 -284 40 -100 42 -125 5 -57 -17 32 -35 51 -48 53 -26 4 -27 2 -49 -125
-10 -56 -21 -106 -25 -113 -4 -6 -76 -40 -161 -75 l-154 -64 -30 34 c-47 53
-786 923 -823 969 -18 23 -40 47 -49 54 -23 16 -58 15 -73 -3z m131 -125 c35
-41 159 -183 274 -315 116 -132 264 -303 329 -380 66 -77 140 -161 165 -187
29 -31 42 -51 36 -57 -6 -6 -42 -22 -80 -36 -94 -36 -154 -75 -220 -147 -97
-105 -150 -243 -161 -423 -6 -80 5 -201 22 -272 l7 -26 -73 39 c-43 22 -99 64
-139 103 l-67 66 -36 135 c-20 74 -64 238 -98 363 -35 125 -60 230 -57 234 4
3 22 -7 41 -23 162 -135 335 -273 354 -283 26 -14 62 -6 62 14 0 7 -64 75
-142 151 -79 77 -195 190 -260 253 -64 62 -122 127 -129 142 -9 23 -8 55 5
156 8 70 19 130 24 135 5 5 96 -80 205 -192 184 -188 227 -222 227 -184 0 14
-158 228 -326 439 -102 130 -98 118 -85 253 11 112 21 139 47 124 6 -4 40 -41
75 -82z m1588 38 c6 -18 46 -177 90 -353 44 -176 96 -376 116 -445 39 -133 52
-208 41 -236 -5 -14 -12 -10 -41 24 -79 92 -230 184 -342 207 -36 8 -66 15
-67 17 -1 2 -28 76 -58 165 -39 113 -54 170 -50 187 11 38 95 175 109 176 12
0 15 -6 96 -240 35 -98 60 -155 68 -155 19 0 17 20 -36 260 -26 116 -49 224
-51 240 -4 23 5 48 41 108 25 42 52 77 59 77 8 0 19 -15 25 -32z m-64 -930
c283 -97 508 -472 508 -848 0 -202 -54 -362 -154 -455 -129 -120 -292 -135
-476 -44 -370 183 -562 740 -384 1114 104 218 294 306 506 233z"/>
<path d="M3605 3842 c-27 -9 -68 -29 -89 -44 -36 -25 -116 -112 -116 -127 0
-9 220 -225 250 -245 69 -46 92 1 119 240 11 98 17 181 15 184 -14 13 -134 9
-179 -8z m99 -182 c17 0 18 -6 11 -72 -7 -74 -24 -130 -44 -142 -10 -6 -181
148 -181 164 0 20 135 62 175 54 11 -2 28 -4 39 -4z"/>
<path d="M3915 3758 c-8 -23 -25 -231 -25 -306 0 -80 15 -125 55 -162 21 -20
42 -25 151 -35 70 -6 140 -9 156 -7 27 4 29 7 22 35 -10 48 -57 157 -98 230
-36 65 -61 95 -32 40 18 -37 46 -103 42 -103 -2 0 -27 39 -56 86 -49 80 -181
234 -202 234 -5 0 -11 -6 -13 -12z m66 -290 c37 -52 92 -165 85 -176 -3 -5
-24 -6 -47 -3 -63 9 -83 42 -88 142 -4 92 5 99 50 37z"/>
<path d="M3332 3486 c-23 -126 -12 -288 30 -416 24 -76 63 -155 80 -166 15
-10 120 104 166 180 51 84 52 122 7 211 -20 40 -49 84 -63 97 l-27 23 21 -25
c24 -28 58 -92 68 -130 4 -14 -9 4 -29 40 -35 64 -207 250 -231 250 -6 0 -16
-29 -22 -64z m115 -78 c99 -102 134 -185 108 -257 -14 -40 -100 -161 -115
-161 -13 0 -60 184 -66 261 -7 79 2 209 15 209 4 0 30 -24 58 -52z"/>
<path d="M3980 3128 c-37 -25 -53 -67 -44 -113 16 -82 136 -425 149 -425 15 0
67 41 102 80 70 79 123 241 123 379 0 107 9 101 -155 101 -131 0 -145 -2 -175
-22z m127 -115 c-5 -82 -39 -203 -56 -203 -4 0 -22 47 -41 103 -38 121 -36
151 13 172 18 8 45 14 61 15 l29 0 -6 -87z"/>
<path d="M3718 3023 c-22 -5 -208 -213 -208 -231 0 -20 89 -110 158 -159 66
-48 187 -93 246 -93 52 0 97 12 103 27 8 21 -109 306 -156 377 -40 61 -95 91
-143 79z m59 -99 c37 -65 94 -216 88 -232 -4 -12 -19 -14 -75 -9 -77 6 -138
30 -187 71 l-33 28 82 94 c45 52 87 93 93 91 5 -2 20 -21 32 -43z"/>
</g>
</svg>
